<svg width="48" height="39" viewBox="0 0 48 39" fill="none" xmlns="http://www.w3.org/2000/svg">
<path d="M33.6673 4.16351C27.2407 6.03226 23.5531 12.7319 25.4309 19.1276C27.3087 25.5233 34.0408 29.1931 40.4674 27.3243L46.1472 25.6727C47.1859 25.3707 47.8999 24.4228 47.8999 23.3459V3.25874C47.8999 1.64216 46.34 0.478498 44.7808 0.931889L33.6673 4.16351Z" fill="#6E57F5"/>
<path d="M3.51943 38.0681C1.96022 38.5215 0.400391 37.3578 0.400391 35.7413V15.6541C0.400391 14.5772 1.11435 13.6293 2.15309 13.3273L7.9643 11.6375C14.3909 9.76873 21.123 13.4385 23.0008 19.8342C24.8786 26.2299 21.191 32.9295 14.7644 34.7983L3.51943 38.0681Z" fill="#6E57F5"/>
</svg>
