<svg width="151" height="53" viewBox="0 0 151 53" fill="none" xmlns="http://www.w3.org/2000/svg">
<path d="M40.6653 11.1635C34.2387 13.0322 30.5512 19.7318 32.429 26.1275C34.3068 32.5232 41.0388 36.193 47.4654 34.3242L53.1452 32.6727C54.184 32.3706 54.8979 31.4228 54.8979 30.3458V10.2587C54.8979 8.6421 53.3381 7.47844 51.7789 7.93183L40.6653 11.1635Z" fill="#9787F8"/>
<path d="M10.5175 45.0681C8.95827 45.5214 7.39844 44.3578 7.39844 42.7412V22.6541C7.39844 21.5771 8.1124 20.6293 9.15114 20.3272L14.9623 18.6374C21.389 16.7687 28.121 20.4385 29.9988 26.8341C31.8766 33.2298 28.1891 39.9295 21.7624 41.7982L10.5175 45.0681Z" fill="#9787F8"/>
<path d="M62.543 15.7634V11.9432C62.543 11.3577 62.8357 11.0649 63.4212 11.0649H67.2414C67.8269 11.0649 68.1196 11.343 68.1196 11.8992V15.7634C68.1196 16.3489 67.8269 16.6416 67.2414 16.6416H63.4212C62.8357 16.6416 62.543 16.3489 62.543 15.7634ZM62.543 41.0121V20.4619C62.543 19.8471 62.8357 19.5397 63.4212 19.5397H67.1975C67.8123 19.5397 68.1196 19.8471 68.1196 20.4619V41.0121C68.1196 41.3927 68.0465 41.6415 67.9001 41.7586C67.783 41.8757 67.5634 41.9342 67.2414 41.9342H63.4651C62.8503 41.9342 62.543 41.6269 62.543 41.0121Z" fill="#FAFAFA"/>
<path d="M73.6555 24.3699H71.8991C71.5478 24.3699 71.2989 24.3114 71.1526 24.1943C71.0355 24.0772 70.9769 23.843 70.9769 23.4917V20.4619C70.9769 19.8471 71.2843 19.5397 71.8991 19.5397H73.6555C73.9775 19.5397 74.1385 19.3787 74.1385 19.0567V14.8852C74.1385 14.2704 74.4605 13.9631 75.1045 13.9631H78.7931C79.4078 13.9631 79.7152 14.2704 79.7152 14.8852V19.0567C79.7152 19.3787 79.8908 19.5397 80.2421 19.5397H83.6671C84.2819 19.5397 84.5893 19.8471 84.5893 20.4619V23.4917C84.5893 23.8137 84.5161 24.0479 84.3697 24.1943C84.2526 24.3114 84.0184 24.3699 83.6671 24.3699H80.2421C79.8908 24.3699 79.7152 24.5309 79.7152 24.8529V34.5572C79.7152 35.4647 79.9201 36.1234 80.3299 36.5332C80.7398 36.9138 81.4131 37.104 82.3498 37.104H84.1063C84.721 37.104 85.0284 37.4114 85.0284 38.0262V41.056C85.0284 41.378 84.9552 41.6122 84.8088 41.7586C84.6917 41.8757 84.4575 41.9342 84.1063 41.9342H81.4277C79.1151 41.9342 77.3147 41.3195 76.0267 40.09C74.7679 38.8605 74.1385 37.104 74.1385 34.8207V24.8529C74.1385 24.5309 73.9775 24.3699 73.6555 24.3699Z" fill="#FAFAFA"/>
<path d="M115.005 41.9342H111.273C110.658 41.9342 110.351 41.6269 110.351 41.0121V20.4619C110.351 19.8471 110.658 19.5397 111.273 19.5397H115.005C115.62 19.5397 115.928 19.8471 115.928 20.4619V21.9548H116.103C116.425 21.1644 116.996 20.5643 117.816 20.1545C118.635 19.7446 119.499 19.5397 120.406 19.5397H121.987C122.573 19.5397 122.865 19.8471 122.865 20.4619V23.4917C122.865 23.843 122.792 24.0918 122.646 24.2382C122.529 24.3553 122.309 24.3992 121.987 24.3699H118.957C116.937 24.3699 115.928 25.5116 115.928 27.795V41.0121C115.928 41.6269 115.62 41.9342 115.005 41.9342Z" fill="#FAFAFA"/>
<path d="M133.52 41.9342H132.466C130.153 41.9342 128.367 41.3195 127.109 40.09C125.85 38.8605 125.22 37.0894 125.22 34.7768V26.6972C125.22 24.3846 125.85 22.6135 127.109 21.384C128.367 20.1545 130.153 19.5397 132.466 19.5397H142.609C143.253 19.5397 143.575 19.8471 143.575 20.4619V41.0121C143.575 41.6269 143.253 41.9342 142.609 41.9342H138.921C138.306 41.9342 137.999 41.6269 137.999 41.0121V39.563H137.823C137.501 40.3534 136.93 40.9536 136.11 41.3634C135.291 41.744 134.427 41.9342 133.52 41.9342ZM137.999 33.7668V24.8529C137.999 24.5309 137.823 24.3699 137.472 24.3699H133.344C132.407 24.3699 131.749 24.5748 131.368 24.9847C130.987 25.3652 130.797 26.0239 130.797 26.9607V34.5133C130.797 35.4501 130.987 36.1234 131.368 36.5332C131.749 36.9138 132.407 37.104 133.344 37.104H134.969C136.989 37.104 137.999 35.9916 137.999 33.7668Z" fill="#FAFAFA"/>
<path fill-rule="evenodd" clip-rule="evenodd" d="M95.1705 41.9343H105.105C105.465 41.9343 105.704 41.8743 105.824 41.7545C105.974 41.6046 106.049 41.3649 106.049 41.0352V38.0684C106.049 37.4091 105.734 37.0794 105.105 37.0794H96.0246C95.0656 37.0794 94.3763 36.8846 93.9568 36.495C93.5672 36.0755 93.3724 35.5957 93.3724 34.6667V34.3402C93.3724 34.0105 93.5522 33.8457 93.9118 33.8457H103.639C105.134 33.8457 106.139 32.4526 106.139 31.4219V27.2003C106.139 24.8328 105.495 23.0198 104.206 21.7611C102.917 20.5024 100.364 19.3551 98.7217 19.1494C97.0914 18.9452 97.06 18.9486 95.2119 19.145L95.1705 19.1494C93.2814 19.3502 90.9749 20.5024 89.6863 21.7611C88.3977 23.0198 87.7534 24.8328 87.7534 27.2003V34.607C87.7534 36.9745 88.3977 38.7876 89.6863 40.0463C90.9749 41.3049 92.803 41.9343 95.1705 41.9343ZM97.0063 23.4752C99.0763 23.4752 100.754 24.9304 100.754 26.7254V29.0387C100.754 29.5885 100.24 30.0343 99.6063 30.0343H94.4063C93.7723 30.0343 93.2583 29.5885 93.2583 29.0387V26.7254C93.2583 24.9304 94.9363 23.4752 97.0063 23.4752Z" fill="#FAFAFA"/>
</svg>
