<svg width="151" height="53" viewBox="0 0 151 53" fill="none" xmlns="http://www.w3.org/2000/svg">
<path d="M40.6673 11.1635C34.2407 13.0323 30.5531 19.7319 32.4309 26.1276C34.3087 32.5233 41.0408 36.1931 47.4674 34.3243L53.1472 32.6727C54.1859 32.3707 54.8999 31.4228 54.8999 30.3459V10.2587C54.8999 8.64216 53.34 7.4785 51.7808 7.93189L40.6673 11.1635Z" fill="#6E57F5"/>
<path d="M10.5194 45.0681C8.96022 45.5215 7.40039 44.3578 7.40039 42.7413V22.6541C7.40039 21.5772 8.11435 20.6293 9.15309 20.3273L14.9643 18.6375C21.3909 16.7687 28.123 20.4385 30.0008 26.8342C31.8786 33.2299 28.191 39.9295 21.7644 41.7983L10.5194 45.0681Z" fill="#6E57F5"/>
<path d="M62.5449 15.7638V11.9436C62.5449 11.3581 62.8377 11.0653 63.4231 11.0653H67.2434C67.8289 11.0653 68.1216 11.3434 68.1216 11.8996V15.7638C68.1216 16.3493 67.8289 16.642 67.2434 16.642H63.4231C62.8377 16.642 62.5449 16.3493 62.5449 15.7638ZM62.5449 41.0125V20.4622C62.5449 19.8475 62.8377 19.5401 63.4231 19.5401H67.1995C67.8142 19.5401 68.1216 19.8475 68.1216 20.4622V41.0125C68.1216 41.3931 68.0484 41.6419 67.902 41.759C67.7849 41.8761 67.5654 41.9346 67.2434 41.9346H63.467C62.8523 41.9346 62.5449 41.6273 62.5449 41.0125Z" fill="#262626"/>
<path d="M73.6574 24.3703H71.901C71.5497 24.3703 71.3009 24.3118 71.1545 24.1947C71.0374 24.0776 70.9789 23.8434 70.9789 23.4921V20.4622C70.9789 19.8475 71.2863 19.5401 71.901 19.5401H73.6574C73.9795 19.5401 74.1405 19.3791 74.1405 19.0571V14.8856C74.1405 14.2708 74.4625 13.9634 75.1065 13.9634H78.795C79.4098 13.9634 79.7171 14.2708 79.7171 14.8856V19.0571C79.7171 19.3791 79.8928 19.5401 80.2441 19.5401H83.6691C84.2839 19.5401 84.5912 19.8475 84.5912 20.4622V23.4921C84.5912 23.8141 84.518 24.0483 84.3717 24.1947C84.2546 24.3118 84.0204 24.3703 83.6691 24.3703H80.2441C79.8928 24.3703 79.7171 24.5313 79.7171 24.8533V34.5576C79.7171 35.4651 79.922 36.1238 80.3319 36.5336C80.7417 36.9142 81.415 37.1044 82.3518 37.1044H84.1082C84.723 37.1044 85.0303 37.4118 85.0303 38.0266V41.0564C85.0303 41.3784 84.9572 41.6126 84.8108 41.759C84.6937 41.8761 84.4595 41.9346 84.1082 41.9346H81.4297C79.117 41.9346 77.3167 41.3199 76.0286 40.0904C74.7698 38.8609 74.1405 37.1044 74.1405 34.8211V24.8533C74.1405 24.5313 73.9795 24.3703 73.6574 24.3703Z" fill="#262626"/>
<path d="M115.007 41.9346H111.275C110.66 41.9346 110.353 41.6273 110.353 41.0125V20.4622C110.353 19.8475 110.66 19.5401 111.275 19.5401H115.007C115.622 19.5401 115.929 19.8475 115.929 20.4622V21.9552H116.105C116.427 21.1648 116.998 20.5647 117.818 20.1549C118.637 19.745 119.501 19.5401 120.408 19.5401H121.989C122.575 19.5401 122.867 19.8475 122.867 20.4622V23.4921C122.867 23.8434 122.794 24.0922 122.648 24.2386C122.531 24.3557 122.311 24.3996 121.989 24.3703H118.959C116.939 24.3703 115.929 25.512 115.929 27.7954V41.0125C115.929 41.6273 115.622 41.9346 115.007 41.9346Z" fill="#262626"/>
<path d="M133.522 41.9346H132.468C130.155 41.9346 128.369 41.3199 127.111 40.0904C125.852 38.8609 125.222 37.0898 125.222 34.7772V26.6976C125.222 24.3849 125.852 22.6139 127.111 21.3844C128.369 20.1549 130.155 19.5401 132.468 19.5401H142.611C143.255 19.5401 143.577 19.8475 143.577 20.4622V41.0125C143.577 41.6273 143.255 41.9346 142.611 41.9346H138.923C138.308 41.9346 138 41.6273 138 41.0125V39.5634H137.825C137.503 40.3538 136.932 40.954 136.112 41.3638C135.293 41.7444 134.429 41.9346 133.522 41.9346ZM138 33.7672V24.8533C138 24.5313 137.825 24.3703 137.474 24.3703H133.346C132.409 24.3703 131.751 24.5752 131.37 24.9851C130.989 25.3656 130.799 26.0243 130.799 26.961V34.5137C130.799 35.4505 130.989 36.1238 131.37 36.5336C131.751 36.9142 132.409 37.1044 133.346 37.1044H134.971C136.991 37.1044 138 35.992 138 33.7672Z" fill="#262626"/>
<path fill-rule="evenodd" clip-rule="evenodd" d="M95.1725 41.9347H105.107C105.467 41.9347 105.706 41.8747 105.826 41.7549C105.976 41.605 106.051 41.3653 106.051 41.0356V38.0688C106.051 37.4095 105.736 37.0798 105.107 37.0798H96.0266C95.0676 37.0798 94.3783 36.885 93.9587 36.4954C93.5692 36.0759 93.3744 35.5961 93.3744 34.6671V34.3406C93.3744 34.0109 93.5542 33.8461 93.9138 33.8461H103.641C105.136 33.8461 106.141 32.453 106.141 31.4223V27.2007C106.141 24.8332 105.497 23.0202 104.208 21.7615C102.919 20.5028 100.366 19.3555 98.7237 19.1498C97.0933 18.9456 97.0619 18.949 95.2139 19.1454L95.1725 19.1498C93.2833 19.3506 90.9769 20.5028 89.6883 21.7615C88.3996 23.0202 87.7553 24.8332 87.7553 27.2007V34.6074C87.7553 36.9749 88.3996 38.788 89.6883 40.0467C90.9769 41.3053 92.805 41.9347 95.1725 41.9347ZM97.0083 23.4756C99.0782 23.4756 100.756 24.9308 100.756 26.7258V29.0391C100.756 29.5889 100.242 30.0346 99.6082 30.0346H94.4083C93.7742 30.0346 93.2602 29.5889 93.2602 29.0391V26.7258C93.2602 24.9308 94.9383 23.4756 97.0083 23.4756Z" fill="#262626"/>
</svg>
