<svg width="250" height="110" viewBox="0 0 250 110" fill="none" xmlns="http://www.w3.org/2000/svg">
<path d="M70.5532 31.0281C60.508 33.9491 54.7441 44.4211 57.6792 54.418C60.6143 64.4149 71.137 70.151 81.1823 67.23L90.0602 64.6485C91.6838 64.1764 92.7998 62.6948 92.7998 61.0115V29.6138C92.7998 27.087 90.3616 25.2681 87.9245 25.9768L70.5532 31.0281Z" fill="#6E57F5"/>
<path d="M23.43 84.0234C20.9928 84.7321 18.5547 82.9132 18.5547 80.3863V48.9887C18.5547 47.3054 19.6707 45.8238 21.2943 45.3517L30.3776 42.7104C40.4229 39.7894 50.9456 45.5256 53.8807 55.5225C56.8158 65.5194 51.0519 75.9914 41.0066 78.9124L23.43 84.0234Z" fill="#6E57F5"/>
<path d="M104.75 38.2186V32.2473C104.75 31.3321 105.208 30.8745 106.123 30.8745H112.094C113.009 30.8745 113.467 31.3092 113.467 32.1786V38.2186C113.467 39.1337 113.009 39.5913 112.094 39.5913H106.123C105.208 39.5913 104.75 39.1337 104.75 38.2186ZM104.75 77.6841V45.5626C104.75 44.6017 105.208 44.1212 106.123 44.1212H112.025C112.986 44.1212 113.467 44.6017 113.467 45.5626V77.6841C113.467 78.279 113.352 78.6679 113.124 78.8509C112.941 79.0339 112.597 79.1255 112.094 79.1255H106.191C105.23 79.1255 104.75 78.645 104.75 77.6841Z" fill="#262626"/>
<path d="M122.12 51.6712H119.374C118.825 51.6712 118.436 51.5797 118.207 51.3966C118.024 51.2136 117.933 50.8475 117.933 50.2985V45.5626C117.933 44.6017 118.413 44.1212 119.374 44.1212H122.12C122.623 44.1212 122.875 43.8696 122.875 43.3663V36.8459C122.875 35.885 123.378 35.4045 124.385 35.4045H130.15C131.111 35.4045 131.591 35.885 131.591 36.8459V43.3663C131.591 43.8696 131.866 44.1212 132.415 44.1212H137.769C138.73 44.1212 139.21 44.6017 139.21 45.5626V50.2985C139.21 50.8018 139.096 51.1678 138.867 51.3966C138.684 51.5797 138.318 51.6712 137.769 51.6712H132.415C131.866 51.6712 131.591 51.9228 131.591 52.4262V67.5947C131.591 69.0131 131.912 70.0427 132.552 70.6833C133.193 71.2781 134.245 71.5755 135.71 71.5755H138.455C139.416 71.5755 139.896 72.056 139.896 73.0169V77.7527C139.896 78.2561 139.782 78.6221 139.553 78.8509C139.37 79.0339 139.004 79.1255 138.455 79.1255H134.268C130.653 79.1255 127.839 78.1646 125.826 76.2428C123.858 74.321 122.875 71.5755 122.875 68.0065V52.4262C122.875 51.9228 122.623 51.6712 122.12 51.6712Z" fill="#262626"/>
<path d="M186.753 79.1255H180.918C179.958 79.1255 179.477 78.645 179.477 77.6841V45.5626C179.477 44.6017 179.958 44.1212 180.918 44.1212H186.753C187.713 44.1212 188.194 44.6017 188.194 45.5626V47.8962H188.468C188.972 46.6608 189.864 45.7227 191.145 45.0821C192.426 44.4415 193.776 44.1212 195.195 44.1212H197.666C198.581 44.1212 199.038 44.6017 199.038 45.5626V50.2985C199.038 50.8475 198.924 51.2365 198.695 51.4653C198.512 51.6483 198.169 51.7169 197.666 51.6712H192.93C189.772 51.6712 188.194 53.4557 188.194 57.0248V77.6841C188.194 78.645 187.713 79.1255 186.753 79.1255Z" fill="#262626"/>
<path d="M215.692 79.1255H214.044C210.43 79.1255 207.638 78.1646 205.671 76.2428C203.703 74.321 202.719 71.5527 202.719 67.9378V55.3089C202.719 51.694 203.703 48.9257 205.671 47.0039C207.638 45.0821 210.43 44.1212 214.044 44.1212H229.899C230.906 44.1212 231.409 44.6017 231.409 45.5626V77.6841C231.409 78.645 230.906 79.1255 229.899 79.1255H224.134C223.173 79.1255 222.692 78.645 222.692 77.6841V75.4191H222.418C221.915 76.6546 221.022 77.5926 219.741 78.2332C218.46 78.828 217.11 79.1255 215.692 79.1255ZM222.692 66.3592V52.4262C222.692 51.9228 222.418 51.6712 221.869 51.6712H215.417C213.953 51.6712 212.923 51.9915 212.328 52.6321C211.734 53.2269 211.436 54.2565 211.436 55.7207V67.526C211.436 68.9903 211.734 70.0427 212.328 70.6833C212.923 71.2781 213.953 71.5755 215.417 71.5755H217.957C221.114 71.5755 222.692 69.8368 222.692 66.3592Z" fill="#262626"/>
<path fill-rule="evenodd" clip-rule="evenodd" d="M155.749 79.1255H171.277C171.84 79.1255 172.214 79.0318 172.402 78.8445C172.636 78.6103 172.753 78.2355 172.753 77.7202V73.0828C172.753 72.0523 172.261 71.537 171.277 71.537H157.084C155.585 71.537 154.508 71.2326 153.852 70.6236C153.243 69.9678 152.939 69.2179 152.939 67.7658V67.2554C152.939 66.7401 153.22 66.4825 153.782 66.4825H168.986C171.322 66.4825 172.894 64.305 172.894 62.694V56.0953C172.894 52.3948 171.886 49.5608 169.872 47.5934C167.858 45.626 163.867 43.8326 161.3 43.5111C158.752 43.192 158.703 43.1972 155.814 43.5043L155.749 43.5111C152.796 43.825 149.191 45.626 147.177 47.5934C145.163 49.5608 144.156 52.3948 144.156 56.0953V67.6725C144.156 71.3731 145.163 74.2071 147.177 76.1744C149.191 78.1418 152.049 79.1255 155.749 79.1255ZM158.619 50.2727C161.854 50.2727 164.477 52.5472 164.477 55.353L164.477 58.9688C164.477 59.8282 163.674 60.5249 162.683 60.5249L154.555 60.5249C153.564 60.5249 152.76 59.8282 152.76 58.9688V55.353C152.76 52.5472 155.383 50.2727 158.619 50.2727Z" fill="#262626"/>
</svg>
